




[center]

[img]http://s12.postimg.org/fzowmq53t/53aa6_portable_5bb600851216dcdf9853d9752713496b.gif[/img]


[code]

Format                                   : AVI
Format/Info                              : Audio Video Interleave
File size                                : 889 MiB
Duration                                 : 1h 27mn
Overall bit rate                         : 1 417 Kbps
Writing library                          : VirtualDub build 32842/release

Video
ID                                       : 0
Format                                   : MPEG-4 Visual
Format profile                           : Advanced Simple@L5
Format settings, BVOP                    : 2
Format settings, QPel                    : No
Format settings, GMC                     : No warppoints
Format settings, Matrix                  : Default (H.263)
Codec ID                                 : XVID
Codec ID/Hint                            : XviD
Duration                                 : 1h 27mn
Bit rate                                 : 960 Kbps
Width                                    : 688 pixels
Height                                   : 384 pixels
Display aspect ratio                     : 16:9
Frame rate                               : 25.000 fps
Original frame rate                      : 23.976 fps
Color space                              : YUV
Chroma subsampling                       : 4:2:0
Bit depth                                : 8 bits
Scan type                                : Progressive
Compression mode                         : Lossy
Bits/(Pixel*Frame)                       : 0.145
Stream size                              : 602 MiB (68%)
Writing library                          : XviD 1.2.1 (UTC 2008-12-04)

Audio
ID                                       : 1
Format                                   : AC-3
Format/Info                              : Audio Coding 3
Mode extension                           : CM (complete main)
Format settings, Endianness              : Big
Codec ID                                 : 2000
Duration                                 : 1h 27mn
Bit rate mode                            : Constant
Bit rate                                 : 448 Kbps
Channel(s)                               : 6 channels
Channel positions                        : Front: L C R, Side: L R, LFE
Sampling rate                            : 48.0 KHz
Bit depth                                : 16 bits
Compression mode                         : Lossy
Stream size                              : 281 MiB (32%)
Alignment                                : Aligned on interleaves
Interleave, duration                     : 40 ms (1.00 video frame)
Interleave, preload duration             : 512 ms



[/code]



[/center]



[center]


[img]http://s12.postimg.org/rdbfxxfmh/screenshots_logo.png[/img]


[url=http://postimage.org/][img]http://s1.postimg.org/p6a6xrgnj/vlcsnap_2013_04_02_14h26m49s148.png[/img][/url]
[url=http://postimage.org/][img]http://s1.postimg.org/rc4hs9k3z/vlcsnap_2013_04_02_14h26m52s177.png[/img][/url]
[url=http://postimage.org/][img]http://s1.postimg.org/4op8m44jz/vlcsnap_2013_04_02_14h27m02s18.png[/img][/url]
[url=http://postimage.org/][img]http://s1.postimg.org/9bvanvrwv/vlcsnap_2013_04_02_14h27m05s54.png[/img][/url]
[url=http://postimage.org/][img]http://s1.postimg.org/h5vw99zpr/vlcsnap_2013_04_02_14h27m09s102.png[/img][/url]


[/center]







